<?xml version="1.0" standalone="no"?>
<!DOCTYPE svg PUBLIC "-//W3C//DTD SVG 20010904//EN"
 "http://www.w3.org/TR/2001/REC-SVG-20010904/DTD/svg10.dtd">
<svg version="1.0" xmlns="http://www.w3.org/2000/svg"
 width="240.000000pt" height="240.000000pt" viewBox="0 0 240.000000 240.000000"
 preserveAspectRatio="xMidYMid meet">

<g transform="translate(0.000000,240.000000) scale(0.100000,-0.100000)"
fill="#000000" stroke="none">
<path d="M168 2286 c-84 -33 -139 -97 -160 -185 -23 -100 28 -214 120 -268 40
-24 58 -28 122 -28 64 0 82 4 122 28 57 33 104 98 120 166 24 104 -34 226
-129 272 -57 28 -143 34 -195 15z"/>
<path d="M1698 1640 c-141 -25 -258 -88 -345 -184 l-53 -58 0 101 0 101 -250
0 -250 0 0 -800 0 -800 250 0 249 0 3 478 3 477 33 67 c58 118 151 178 276
178 116 0 210 -69 258 -189 23 -55 23 -64 26 -533 l3 -478 250 0 250 0 -3 583
c-3 517 -6 589 -21 641 -77 261 -269 412 -537 422 -52 1 -116 -1 -142 -6z"/>
<path d="M0 800 l0 -800 250 0 250 0 0 800 0 800 -250 0 -250 0 0 -800z"/>
</g>
</svg>
